PathFileType	4	(X/Y/Z)	/Users/itak/Documents/Research/Walk-IL/dataset/trc/00312_00010.trc
DataRate	CameraRate	NumFrames	NumMarkers	Units	OrigDataRate	OrigDataStartFrame	OrigNumFrames
100.000000	100.000000	4	53	mm	100.000000	0	543
Frame#	Time	RPSI			LPSI			L3			STRN			T10			C7			CLAV			RBAK			LBAK			LSHO			LUPA			LAEL			LAOL			LWTS			LWPS			LFRA			LIFD			LHPS			LHTS			RSHO			RUPA			RAEL			RAOL			RWTS			RWPS			RFRA			RIFD			RHTS			RHPS			RBHD			LFHD			RFHD			LBHD			LHIP			RHIP			RASI			LASI			LKNE			LTHI			LANK			LTIP			LTOE			LMT1			LMT5			LHEE			RKNE			RTHI			RANK			RTIP			RTOE			RMT1			RMT5			RHEE			
		X1	Y1	Z1	X2	Y2	Z2	X3	Y3	Z3	X4	Y4	Z4	X5	Y5	Z5	X6	Y6	Z6	X7	Y7	Z7	X8	Y8	Z8	X9	Y9	Z9	X10	Y10	Z10	X11	Y11	Z11	X12	Y12	Z12	X13	Y13	Z13	X14	Y14	Z14	X15	Y15	Z15	X16	Y16	Z16	X17	Y17	Z17	X18	Y18	Z18	X19	Y19	Z19	X20	Y20	Z20	X21	Y21	Z21	X22	Y22	Z22	X23	Y23	Z23	X24	Y24	Z24	X25	Y25	Z25	X26	Y26	Z26	X27	Y27	Z27	X28	Y28	Z28	X29	Y29	Z29	X30	Y30	Z30	X31	Y31	Z31	X32	Y32	Z32	X33	Y33	Z33	X34	Y34	Z34	X35	Y35	Z35	X36	Y36	Z36	X37	Y37	Z37	X38	Y38	Z38	X39	Y39	Z39	X40	Y40	Z40	X41	Y41	Z41	X42	Y42	Z42	X43	Y43	Z43	X44	Y44	Z44	X45	Y45	Z45	X46	Y46	Z46	X47	Y47	Z47	X48	Y48	Z48	X49	Y49	Z49	X50	Y50	Z50	X51	Y51	Z51	X52	Y52	Z52	X53	Y53	Z53	

1	0	-1212.192993164062	1008.742065429688	-608.8267822265625	-1202.270874023438	997.5504150390625	-782.9727783203125	-1187.3037109375	1072.671630859375	-700.1356201171875	-939.6992797851562	1252.002319335938	-703.7276000976562	-1203.078979492188	1183.62939453125	-704.5885009765625	-1161.26611328125	1429.382568359375	-726.767578125	-1003.345764160156	1351.25927734375	-712.017333984375	-1213.686401367188	1293.705688476562	-648.6723022460938	-1173.330444335938	1388.502685546875	-829.289794921875	-1082.920166015625	1397.010009765625	-880.0037841796875	-1105.787109375	1276.9697265625	-950.8073120117188	-1092.786865234375	1072.80078125	-960.269287109375	-1151.701049804688	1059.434326171875	-898.3936767578125	-1006.504577636719	852.4930419921875	-904.2052001953125	-1041.59814453125	838.2166748046875	-968.4166259765625	-1075.610717773438	968.6173706054688	-966.42822265625	-1004.760864257812	666.0543212890625	-906.1170043945312	-1035.8603515625	749.689453125	-965.6928100585938	-966.2223510742188	765.0023803710938	-927.793212890625	-1100.349731445312	1412.58251953125	-565.0031127929688	-1108.067016601562	1354.100952148438	-497.8033142089844	-1105.163696289062	1088.647583007812	-440.6619873046875	-1140.437744140625	1077.91552734375	-528.4468994140625	-995.2820434570312	870.1439208984375	-491.1137084960938	-1034.111328125	864.4795532226562	-416.2286987304688	-1077.028930664062	1022.974365234375	-427.8115844726562	-979.7592163085938	685.2012329101562	-487.59228515625	-958.5148315429688	756.645263671875	-472.5790710449219	-1004.13818359375	755.0327758789062	-416.9253845214844	-1152.99755859375	1586.356689453125	-663.3218383789062	-964.2130737304688	1639.72509765625	-746.4663696289062	-984.016845703125	1632.93359375	-655.3438110351562	-1122.778930664062	1586.139404296875	-806.39892578125	-1130.663452148438	948.5814819335938	-874.4386596679688	-1115.115600585938	959.8261108398438	-501.2092590332031	-992.4934692382812	964.5748291015625	-566.0226440429688	-992.5971069335938	957.6651000976562	-817.7437133789062	-1056.354248046875	484.9147644042969	-841.6517944335938	-1065.469482421875	626.7943115234375	-863.2774658203125	-1162.77197265625	48.56091690063477	-826.7395629882812	-1113.317138671875	260.9867553710938	-844.1853637695312	-954.117431640625	39.87810134887695	-769.7320556640625	-1024.99462890625	31.4891185760498	-727.6409912109375	-1040.55126953125	42.35786819458008	-839.8497924804688	-1207.749877929688	44.36607360839844	-766.3274536132812	-1074.693969726562	485.0270080566406	-530.8553466796875	-1049.6025390625	749.1900634765625	-502.4090270996094	-1152.996704101562	45.95545959472656	-556.2227172851562	-1069.552124023438	361.0580444335938	-542.515869140625	-956.2142944335938	45.18390655517578	-601.1905517578125	-1012.855651855469	40.05442428588867	-643.2806396484375	-1049.076782226562	38.52282333374023	-531.250244140625	-1203.827270507812	38.01481246948242	-606.1304321289062	
2	0.01	-1212.204467773438	1008.752319335938	-608.9644775390625	-1202.235595703125	997.5763549804688	-783.106201171875	-1187.297607421875	1072.682495117188	-700.2777099609375	-939.7018432617188	1251.999877929688	-703.745361328125	-1203.028198242188	1183.630126953125	-704.7036743164062	-1161.230590820312	1429.396362304688	-726.825439453125	-1003.324584960938	1351.259399414062	-712.0346069335938	-1213.683837890625	1293.697998046875	-648.7650756835938	-1173.229858398438	1388.533081054688	-829.36572265625	-1082.8330078125	1397.024780273438	-880.0614624023438	-1105.652954101562	1277.015502929688	-950.9004516601562	-1092.611083984375	1072.834716796875	-960.443359375	-1151.658081054688	1059.498657226562	-898.6104736328125	-1006.790100097656	852.3817138671875	-904.4573974609375	-1041.800537109375	838.1947021484375	-968.7069091796875	-1075.584350585938	968.6452026367188	-966.6241455078125	-1005.492980957031	665.91552734375	-906.4937133789062	-1036.333740234375	749.65576171875	-966.0390014648438	-966.4020385742188	764.9984130859375	-928.05712890625	-1100.354125976562	1412.572875976562	-565.03369140625	-1108.067993164062	1354.081420898438	-497.8136596679688	-1104.837280273438	1088.53564453125	-440.8603515625	-1140.333251953125	1077.861694335938	-528.5953979492188	-995.0095825195312	870.1725463867188	-491.78173828125	-1033.731201171875	864.3496704101562	-416.8851013183594	-1076.6591796875	1022.837097167969	-428.1574401855469	-979.3980712890625	685.1529541015625	-488.560791015625	-958.0580444335938	756.6183471679688	-473.4791564941406	-1003.808166503906	754.8729858398438	-417.7837829589844	-1152.974731445312	1586.317260742188	-663.3316650390625	-964.2479248046875	1639.747924804688	-746.4732666015625	-984.0126953125	1632.937866210938	-655.3626098632812	-1122.790771484375	1586.1455078125	-806.4077758789062	-1130.553466796875	948.6016235351562	-874.5582275390625	-1115.083862304688	959.8268432617188	-501.3385925292969	-992.4619750976562	964.5664672851562	-566.1021728515625	-992.4754028320312	957.7098388671875	-817.8800659179688	-1056.561157226562	484.9251403808594	-841.7192993164062	-1065.606567382812	626.8125610351562	-863.3903198242188	-1162.7705078125	48.55383682250977	-826.7390747070312	-1113.400512695312	260.9879760742188	-844.2007446289062	-954.1210327148438	39.87855911254883	-769.7389526367188	-1024.993041992188	31.48669242858887	-727.643310546875	-1040.55419921875	42.35943603515625	-839.8533325195312	-1207.759399414062	44.36445236206055	-766.3305053710938	-1074.678466796875	485.0320129394531	-530.9293212890625	-1050.03173828125	749.0272216796875	-502.164306640625	-1152.988037109375	45.951416015625	-556.2208251953125	-1069.569458007812	361.0617065429688	-542.5885620117188	-956.2339477539062	45.20734786987305	-601.2056884765625	-1012.865356445312	40.05193710327148	-643.2824096679688	-1049.06396484375	38.5180778503418	-531.2576293945312	-1203.82275390625	38.01488876342773	-606.137451171875	
3	0.02	-1212.216674804688	1008.770385742188	-609.1333618164062	-1202.190185546875	997.60986328125	-783.27587890625	-1187.279541015625	1072.6943359375	-700.4490356445312	-939.7047119140625	1251.994506835938	-703.7686767578125	-1202.97412109375	1183.630004882812	-704.8428955078125	-1161.184204101562	1429.412109375	-726.897216796875	-1003.306030273438	1351.259399414062	-712.0618286132812	-1213.675537109375	1293.685668945312	-648.8765258789062	-1173.103637695312	1388.567504882812	-829.4596557617188	-1082.734375	1397.041625976562	-880.1343383789062	-1105.485961914062	1277.06884765625	-951.014404296875	-1092.41796875	1072.877197265625	-960.6588134765625	-1151.590087890625	1059.57421875	-898.8817749023438	-1007.1474609375	852.228271484375	-904.755859375	-1042.034545898438	838.1712646484375	-969.0693969726562	-1075.536254882812	968.67578125	-966.87353515625	-1006.349182128906	665.736083984375	-906.946044921875	-1036.864501953125	749.603515625	-966.4544677734375	-966.6113891601562	764.9683227539062	-928.3734741210938	-1100.355590820312	1412.560913085938	-565.0731811523438	-1108.070190429688	1354.05810546875	-497.8275146484375	-1104.427734375	1088.391723632812	-441.11279296875	-1140.21484375	1077.797973632812	-528.77392578125	-994.69140625	870.1764526367188	-492.6572265625	-1033.261108398438	864.1851196289062	-417.71240234375	-1076.197265625	1022.667419433594	-428.602294921875	-978.9625244140625	685.08349609375	-489.794189453125	-957.550048828125	756.572265625	-474.6409912109375	-1003.3515625	754.6838989257812	-418.8748779296875	-1152.944702148438	1586.276245117188	-663.3447265625	-964.2831420898438	1639.771728515625	-746.4951782226562	-984.0033569335938	1632.942138671875	-655.392578125	-1122.805908203125	1586.152587890625	-806.4191284179688	-1130.40087890625	948.6237182617188	-874.705810546875	-1115.039916992188	959.8276977539062	-501.4990234375	-992.3946533203125	964.5594482421875	-566.2116088867188	-992.34716796875	957.7552490234375	-818.0508422851562	-1056.822143554688	484.9388427734375	-841.8043212890625	-1065.784057617188	626.833984375	-863.5287475585938	-1162.7705078125	48.54354095458984	-826.738525390625	-1113.514892578125	260.993896484375	-844.2216796875	-954.1282958984375	39.88954162597656	-769.7427368164062	-1024.990234375	31.48616027832031	-727.6460571289062	-1040.5595703125	42.36201477050781	-839.858642578125	-1207.771118164062	44.3600959777832	-766.3346557617188	-1074.662231445312	485.0392761230469	-531.0203857421875	-1050.547729492188	748.839111328125	-501.8542785644531	-1152.980590820312	45.94891357421875	-556.2192993164062	-1069.599365234375	361.0683898925781	-542.6814575195312	-956.2450561523438	45.22152328491211	-601.2189331054688	-1012.875610351562	40.04866790771484	-643.2853393554688	-1049.057250976562	38.51791000366211	-531.2658081054688	-1203.818237304688	38.01528549194336	-606.1451416015625	
4	0.03	-1212.227172851562	1008.797424316406	-609.3257446289062	-1202.134765625	997.650146484375	-783.4738159179688	-1187.24560546875	1072.70654296875	-700.6396484375	-939.7081909179688	1251.984375	-703.7974853515625	-1202.924072265625	1183.628173828125	-704.99853515625	-1161.128784179688	1429.428588867188	-726.9799194335938	-1003.293334960938	1351.259399414062	-712.1002807617188	-1213.659545898438	1293.668090820312	-649.0000610351562	-1172.959594726562	1388.602416992188	-829.5667114257812	-1082.63330078125	1397.05908203125	-880.2195434570312	-1105.29443359375	1277.125366210938	-951.1426391601562	-1092.2265625	1072.925659179688	-960.9039306640625	-1151.49560546875	1059.65478515625	-899.194091796875	-1007.560546875	852.0324096679688	-905.0805053710938	-1042.284423828125	838.146240234375	-969.4830322265625	-1075.462768554688	968.7056274414062	-967.16650390625	-1007.274536132812	665.5274047851562	-907.4478149414062	-1037.41455078125	749.5335693359375	-966.9146728515625	-966.84716796875	764.89990234375	-928.7174682617188	-1100.3515625	1412.54736328125	-565.12060546875	-1108.073120117188	1354.031616210938	-497.8449401855469	-1103.950561523438	1088.220703125	-441.4102478027344	-1140.092651367188	1077.727661132812	-528.9716186523438	-994.35791015625	870.14013671875	-493.7194519042969	-1032.71484375	863.9892578125	-418.6791687011719	-1075.664306640625	1022.473571777344	-429.1317443847656	-978.4856567382812	684.9879760742188	-491.2556457519531	-957.039794921875	756.499755859375	-476.0325317382812	-1002.771362304688	754.4725341796875	-420.1680297851562	-1152.907836914062	1586.239379882812	-663.3609619140625	-964.314208984375	1639.793090820312	-746.5372924804688	-983.986083984375	1632.94580078125	-655.4360961914062	-1122.82421875	1586.160278320312	-806.4324340820312	-1130.210693359375	948.6466064453125	-874.8750610351562	-1114.985229492188	959.8289184570312	-501.6820373535156	-992.28515625	964.5562133789062	-566.3501586914062	-992.230224609375	957.7942504882812	-818.248291015625	-1057.125244140625	484.9563903808594	-841.90283203125	-1065.993530273438	626.8563842773438	-863.68505859375	-1162.77294921875	48.52988815307617	-826.7376098632812	-1113.661743164062	261.0070495605469	-844.2484130859375	-954.1386108398438	39.91035842895508	-769.7427368164062	-1024.986328125	31.48846054077148	-727.6488647460938	-1040.5673828125	42.36528015136719	-839.8655395507812	-1207.78466796875	44.35258483886719	-766.3400268554688	-1074.64697265625	485.048828125	-531.1234741210938	-1051.096557617188	748.6449584960938	-501.509765625	-1152.975708007812	45.94906616210938	-556.2188110351562	-1069.643432617188	361.0792846679688	-542.7918701171875	-956.244384765625	45.22241592407227	-601.228271484375	-1012.885925292969	40.04496002197266	-643.289794921875	-1049.057861328125	38.52304077148438	-531.2742919921875	-1203.813232421875	38.01519393920898	-606.15234375	
